<?xml version="1.0" standalone="no"?>
<!DOCTYPE svg PUBLIC "-//W3C//DTD SVG 20010904//EN"
 "http://www.w3.org/TR/2001/REC-SVG-20010904/DTD/svg10.dtd">
<svg version="1.0" xmlns="http://www.w3.org/2000/svg"
 width="129.000000pt" height="129.000000pt" viewBox="0 0 129.000000 129.000000"
 preserveAspectRatio="xMidYMid meet">
<metadata>
Created by potrace 1.14, written by Peter Selinger 2001-2017
</metadata>
<g transform="translate(0.000000,129.000000) scale(0.100000,-0.100000)"
fill="#000000" stroke="none">
<path d="M460 1023 c-262 -135 -359 -190 -377 -213 -22 -27 -15 -70 15 -97 15
-14 83 -54 152 -90 69 -36 128 -68 132 -71 4 -4 -28 -26 -70 -48 -92 -50 -110
-79 -72 -119 13 -14 26 -25 30 -25 4 0 61 -29 128 -65 219 -119 258 -117 512
20 126 69 130 72 130 105 0 34 -22 53 -108 94 -72 35 -80 26 93 116 140 73
166 95 167 138 2 50 13 42 -287 202 -181 97 -198 104 -265 108 -63 4 -69 2
-180 -55z m285 -408 c122 -65 121 -64 87 -85 -56 -34 -177 -95 -195 -97 -22
-4 -239 109 -229 118 4 4 48 28 97 54 50 26 94 51 99 55 15 15 51 3 141 -45z"/>
</g>
</svg>
